<?xml version="1.0" encoding="iso-8859-1"?>
<!-- Generator: Adobe Illustrator 18.0.0, SVG Export Plug-In . SVG Version: 6.00 Build 0)  -->
<!DOCTYPE svg PUBLIC "-//W3C//DTD SVG 1.1//EN" "http://www.w3.org/Graphics/SVG/1.1/DTD/svg11.dtd">
<svg version="1.1" id="Capa_1" xmlns="http://www.w3.org/2000/svg" xmlns:xlink="http://www.w3.org/1999/xlink" x="0px" y="0px"
	 viewBox="0 0 395 395" style="enable-background:new 0 0 395 395;" xml:space="preserve">
<g>
	<path d="M313.002,0H81.999C36.785,0,0,36.784,0,81.998v230.993C0,358.211,36.785,395,81.999,395h231.003
		C358.216,395,395,358.211,395,312.991V81.998C395,36.784,358.216,0,313.002,0z M380,312.991C380,349.94,349.945,380,313.002,380
		H81.999C45.056,380,15,349.94,15,312.991V81.998C15,45.056,45.056,15,81.999,15h231.003C349.945,15,380,45.056,380,81.998V312.991z
		"/>
	<path d="M199.73,128.91c19.346,5.438,39.44-5.824,44.877-25.166c5.441-19.344-5.837-39.439-25.181-44.877
		c-19.34-5.438-39.439,5.834-44.88,25.178C169.108,103.389,180.395,123.473,199.73,128.91z"/>
	<path d="M281.656,132.606H116.322c-7.438,0-13.467,6.03-13.467,13.468s6.029,13.468,13.467,13.468h47.973l-63.417,157.383
		c-2.814,6.885,0.485,14.748,7.37,17.563c1.668,0.683,3.394,1.005,5.091,1.005c5.307,0,10.338-3.158,12.471-8.374l36.322-88.846
		l32.154,18.297l-7.899,35.767c-1.604,7.263,2.983,14.451,10.246,16.055c0.979,0.216,1.955,0.32,2.917,0.32
		c6.181-0.001,11.75-4.282,13.138-10.566l10.041-45.465c1.273-5.766-1.358-11.689-6.49-14.609l-12.793-7.279l26.433-71.249h51.778
		c7.438,0,13.467-6.03,13.467-13.468S289.094,132.606,281.656,132.606z"/>
	<path d="M263.782,312.215h-85.288l-12.467-7.944c-2.95-1.879-6.862-1.012-8.741,1.938c-1.878,2.948-1.011,6.861,1.937,8.74
		l14.023,8.936c1.017,0.648,2.197,0.991,3.402,0.991h9.332c-0.511,1.126-0.803,2.372-0.803,3.69c0,4.933,3.997,8.935,8.938,8.935
		c4.935,0,8.935-4.002,8.935-8.935c0-1.317-0.292-2.564-0.803-3.69h34.003c-0.512,1.126-0.804,2.372-0.804,3.69
		c0,4.933,4.002,8.935,8.938,8.935c4.938,0,8.938-4.002,8.938-8.935c0-1.317-0.292-2.564-0.803-3.69h11.263
		c3.496,0,6.331-2.834,6.331-6.33S267.278,312.215,263.782,312.215z"/>
</g>
<g>
</g>
<g>
</g>
<g>
</g>
<g>
</g>
<g>
</g>
<g>
</g>
<g>
</g>
<g>
</g>
<g>
</g>
<g>
</g>
<g>
</g>
<g>
</g>
<g>
</g>
<g>
</g>
<g>
</g>
</svg>
